<svg width="177" height="45" viewBox="0 0 177 45" fill="none" xmlns="http://www.w3.org/2000/svg">
<path d="M49.622 14.3212C47.2526 14.3212 45.4046 14.9278 44.0303 16.0944C42.6561 17.261 41.3767 18.9875 40.192 21.2741C40.1446 21.3674 40.1446 21.4607 40.0973 21.554C40.0499 21.6474 40.0025 21.7407 40.0025 21.7874C39.9551 21.834 39.9077 21.9273 39.8603 22.0673C38.9126 23.9806 38.0596 25.3338 37.3488 26.1738C36.638 27.0137 35.6903 27.4337 34.5056 27.4337H34.2687H33.7474H23.2276H22.8485C21.5217 27.4337 20.5739 27.107 20.0053 26.5004C19.4367 25.8938 18.7259 24.5405 17.9203 22.4407C17.3043 20.9474 16.783 19.6875 16.3565 18.7542C15.9301 17.8209 15.2193 16.6077 14.2715 15.1144C13.3238 13.6212 12.2813 12.2679 11.0966 11.0547L6.8792 15.1144C9.7224 18.3809 11.8074 21.6474 13.0395 24.9605C13.229 25.3805 13.466 26.0338 13.7977 26.8737C11.7126 27.4337 9.15376 27.7603 6.12102 27.7603C4.46248 27.7603 2.56702 27.667 0.339844 27.527V34.0133C1.80883 34.2466 3.75168 34.3399 6.1684 34.3399C10.1015 34.3399 13.5133 33.5466 16.4513 31.9134C17.7781 33.2667 19.721 33.9666 22.2799 33.9666H23.1802H33.6527H34.0318H34.1739C36.3537 33.9199 38.2018 33.1733 39.6708 31.7734C42.3244 33.2666 45.4993 34.0599 49.1955 34.0599C52.323 34.0599 54.8345 33.7333 56.7774 33.08C57.8199 30.7001 58.3411 27.9936 58.3411 24.9138C58.3411 21.974 57.5355 19.4542 55.9244 17.4476C54.3606 15.3011 52.2282 14.3212 49.622 14.3212ZM53.1286 27.8537C52.2282 27.947 51.2805 27.9936 50.3328 27.9936C47.537 27.9936 45.1676 27.6203 43.1774 26.8737C43.2248 26.7804 43.3195 26.5471 43.5565 26.1271C44.7885 23.7472 45.7837 22.1607 46.5892 21.414C47.3948 20.6674 48.3425 20.2475 49.4798 20.2475C50.7119 20.2475 51.6596 20.7608 52.323 21.7874C52.9864 22.814 53.3181 24.0739 53.3181 25.6605C53.3181 26.2671 53.2234 27.0137 53.1286 27.8537Z" fill="#003FB3"/>
<path d="M101.508 41.2455L105.725 44.6986L109.232 40.7789L104.967 37.2324L101.508 41.2455Z" fill="#003FB3"/>
<path d="M106.392 16.2799C107.293 19.733 107.719 23.1861 107.719 26.5926C106.061 27.1059 104.023 27.3392 101.654 27.3392H101.322H90.3756H86.253H85.1157C82.462 27.3392 80.7087 26.4526 79.8084 24.6794C79.6188 24.3527 79.4293 23.9794 79.2871 23.6061C79.0976 23.2328 79.0028 22.8595 78.8606 22.5328C78.7659 22.2062 78.6237 21.7862 78.4815 21.2262C78.3394 20.6663 78.1972 20.2463 78.1498 19.9663C78.0551 19.6863 77.9603 19.173 77.7707 18.4264C77.5812 17.6798 77.4864 17.1665 77.3916 16.8865L71.8948 18.6131C73.1742 22.9995 73.7903 26.3126 73.7903 28.5058C73.7903 31.0723 73.1268 33.2655 71.7526 35.0387C70.4258 36.812 68.2934 37.6986 65.3554 37.6986C64.5499 37.6986 63.7443 37.6519 62.9861 37.5119L62.4648 42.8783C63.8864 43.1582 65.308 43.3449 66.7296 43.3449C70.1415 43.3449 72.8425 42.3183 74.8328 40.2651C76.823 38.2119 78.1024 35.5054 78.6237 32.0989C80.0453 33.3122 81.9881 33.9188 84.547 33.9188H86.2056H90.3282H101.322H101.559C103.502 33.9188 105.445 33.6855 107.34 33.2188C109.235 32.7522 110.752 32.1922 111.889 31.5389C112.553 29.6257 112.837 27.1059 112.837 24.0261C112.837 20.9463 112.505 17.9598 111.842 15.1133L106.392 16.2799Z" fill="#003FB3"/>
<path d="M117.008 5.96859V33.9202H122.884V5.50195L117.008 5.96859Z" fill="#003FB3"/>
<path d="M68.0082 10.0273L62.1797 10.494V33.9192H68.0082V10.0273Z" fill="#003FB3"/>
<path d="M72.1314 8.81417L72.6053 4.70775C71.9892 4.66109 71.3258 4.56776 70.5202 4.42777C68.53 4.14779 61.7063 3.26118 60.9955 3.3545C59.0526 3.58782 57.4888 4.80108 56.3516 6.99428L58.8157 9.23414C59.6213 8.20754 60.5216 7.64757 61.5641 7.50758C62.1328 7.41425 63.3174 7.50758 65.0234 7.78756C65.5446 7.92756 71.6101 8.7675 72.1314 8.81417Z" fill="#003FB3"/>
<path d="M150.766 28.6904L164.129 15.5312C167.067 12.638 171.853 12.638 174.791 15.5312C177.729 18.4244 177.729 23.1374 174.791 26.0306L161.428 39.1898C158.49 42.0829 153.704 42.0829 150.766 39.1898C147.781 36.2966 147.781 31.5835 150.766 28.6904Z" fill="#003FB3"/>
<path d="M150.77 2.41972C149.301 3.8663 148.543 5.77951 148.543 7.69273V33.9645C148.543 35.8777 149.301 37.7909 150.77 39.2375C153.708 42.1306 158.494 42.1306 161.432 39.2375C162.901 37.7909 163.659 35.8777 163.659 33.9645V7.64606C163.659 5.73285 162.901 3.81963 161.432 2.37305C158.494 -0.520103 153.708 -0.520103 150.77 2.41972Z" fill="#0078FF"/>
<path d="M150.77 39.1898L137.407 26.0306C134.469 23.1374 134.469 18.4244 137.407 15.5312C140.345 12.638 145.131 12.638 148.069 15.5312L161.432 28.6904C164.37 31.5835 164.37 36.2966 161.432 39.1898C158.494 42.0829 153.708 42.0829 150.77 39.1898Z" fill="#00DE66"/>
</svg>
